<svg width="95" height="31" viewBox="0 0 95 31" fill="none" xmlns="http://www.w3.org/2000/svg">
<path d="M86.6566 14.4408C87.4575 13.2393 88.2586 12.1714 88.9926 11.0367C89.2597 10.5694 89.5934 10.3692 90.1941 10.3692C91.5292 10.3692 92.864 10.3024 94.1989 10.2357C94.7997 10.2357 95 10.4359 95 11.0367C95 12.0379 95 13.0391 95 14.107C95 14.5742 94.8664 14.908 94.5326 15.2417C93.4647 16.5767 92.3967 17.9783 91.3289 19.3133C90.9283 19.7805 90.9951 20.0475 91.3289 20.448C92.3968 21.7162 93.3981 23.0511 94.3992 24.3193C94.7997 24.8533 95 25.3873 94.9331 25.988C94.8664 26.9224 94.9331 27.7901 94.9331 28.7246C94.9331 29.1918 94.733 29.4588 94.2657 29.5256C92.9308 29.7258 91.5292 29.7258 90.1941 29.5923C89.6602 29.5256 89.3265 29.1918 89.0594 28.7913C88.2584 27.5232 87.4575 26.255 86.5898 24.92C85.7888 26.0547 84.9878 27.0559 84.3204 28.1906C83.653 29.3253 82.7852 29.7926 81.517 29.6591C80.5825 29.5923 79.7148 29.7258 78.7804 29.4588C78.3132 29.3253 78.0461 29.1251 78.0461 28.5911C78.113 27.5232 78.113 26.522 78.113 25.454C78.113 25.0535 78.3132 24.7198 78.5802 24.3861C79.6481 22.9844 80.7828 21.5827 81.8507 20.181C82.1177 19.8473 82.1177 19.647 81.8507 19.3133C80.7828 18.0451 79.7815 16.7769 78.7804 15.5087C78.2464 14.8412 77.9795 14.1738 78.0461 13.3061C78.113 12.5051 78.0461 11.7041 78.0461 10.9032C78.0461 10.4359 78.2464 10.1689 78.7804 10.1689C80.182 10.2357 81.5837 10.2357 82.9187 10.3024C83.3859 10.3024 83.5862 10.5694 83.7864 10.9032C84.7876 12.1046 85.6554 13.2393 86.6566 14.4408Z" fill="#0B0B0B"/>
<path d="M46.2747 21.783C46.2747 20.4481 46.2747 19.1132 46.2747 17.7782C46.2747 16.777 46.0745 16.51 45.0732 16.5768C44.339 16.5768 44.1388 16.3098 44.2055 15.6423C44.2723 14.4409 44.2723 13.2394 44.2055 12.038C44.1388 11.3705 44.4058 10.97 45.0732 11.0368C46.0745 11.1035 46.1412 10.5028 46.1412 9.76859C46.2079 7.96642 45.9409 6.16426 46.1412 4.29534C46.2079 3.22739 46.2747 3.16064 47.3427 3.42763C48.8778 3.82811 50.413 4.02835 52.0149 4.2286C52.4822 4.29534 52.6824 4.49558 52.6156 4.96281C52.5489 6.3645 52.4154 7.69944 52.4154 9.10112C52.3486 10.4361 52.4154 10.5028 53.7503 10.5028C54.6848 10.5028 55.5525 10.4361 56.487 10.3693C57.0209 10.3693 57.2212 10.5696 57.1545 11.0368C56.9541 12.7055 56.9541 14.3741 57.0209 16.0428C57.0209 16.5768 56.8207 16.7103 56.3534 16.6435C55.2855 16.6435 54.2843 16.6435 53.2164 16.5768C52.7491 16.5768 52.4822 16.7103 52.4822 17.2443C52.4822 18.6459 52.4822 20.0476 52.5489 21.5161C52.6156 23.1847 53.5501 23.8522 55.152 23.5852C55.7528 23.5185 56.2867 23.3182 56.8874 23.2515C57.3547 23.1847 57.6217 23.3182 57.6217 23.7855C57.5549 25.1204 57.4214 26.3886 57.3547 27.7235C57.3547 28.0573 57.0876 28.2575 56.8207 28.391C54.4179 29.9262 51.8147 30.3267 49.078 29.5924C47.4093 29.1252 46.4082 27.857 46.3414 26.0549" fill="#0B0B0B"/>
<path d="M23.1135 9.3681C21.7786 5.36329 19.1754 2.55991 14.9037 1.62545C10.4316 0.690997 5.89285 1.02473 1.35403 1.15823C0.753357 1.15823 0.619812 1.55871 0.686584 2.09268C0.820038 6.49798 0.88681 10.97 0.953522 15.3753C0.953522 15.3753 0.953522 15.3753 0.88681 15.3753C0.88681 16.243 0.88681 17.1108 0.88681 18.0452C0.820038 21.5828 0.753357 25.1204 0.619812 28.658C0.619812 29.1252 0.619812 29.4589 1.28729 29.5257C5.02515 29.6592 8.76291 29.7259 12.5008 29.5924C15.8381 29.4589 18.7082 28.1907 20.7774 25.4541C24.4485 20.5148 25.0491 15.1083 23.1135 9.3681ZM16.2386 19.9141C14.6367 22.9845 11.7666 23.7855 8.49597 23.118C7.96191 22.9845 7.69498 22.6507 7.76175 22.1168C7.76175 19.8474 7.76175 17.578 7.76175 15.3086C7.76175 13.1059 7.76175 10.9033 7.76175 8.76738C7.76175 8.03316 8.02869 7.69943 8.6962 7.56593C13.8357 6.56473 16.7058 9.90208 17.173 13.9069C17.3733 15.9093 17.2398 17.9785 16.2386 19.9141Z" fill="#0B0A0B"/>
<path d="M76.1105 15.3085C74.8424 11.9044 72.4394 9.70176 68.7016 9.30128C64.8303 8.9008 61.7599 10.2357 59.891 13.7733C58.0888 17.2442 57.8886 20.982 59.4905 24.5863C61.0257 28.0572 63.7622 29.9261 67.6336 29.9261C71.4383 29.9261 74.1749 28.1239 75.7768 24.6531C76.511 23.0512 76.778 21.3157 76.778 19.5136C76.778 18.1119 76.5777 16.7102 76.1105 15.3085ZM69.6361 22.8509C68.5013 23.9856 66.8326 23.9856 65.698 22.8509C64.0294 21.1822 64.0294 18.0451 65.698 16.3765C66.8994 15.175 68.7016 15.2418 69.7696 16.51C70.5037 17.3777 70.8375 18.4456 70.8375 19.0463C70.8375 20.8485 70.5037 21.9165 69.6361 22.8509Z" fill="#0B0B0B"/>
<path d="M43.2711 16.8438C42.6704 13.4397 41.0017 10.7699 37.7312 9.50166C33.5928 7.83299 29.054 9.96889 27.1184 14.3074C26.1171 16.5768 25.9169 18.913 26.1171 21.3159C26.5844 26.5889 30.4557 30.1932 35.7287 30.1265C35.9957 30.1265 36.2627 30.1265 36.5297 30.1265C38.7323 29.993 40.8015 29.3923 42.4034 27.6568C42.7371 27.2564 42.8706 26.9226 42.6704 26.4554C42.2032 25.3207 41.6691 24.186 41.0684 23.1848C40.8015 22.7176 40.6012 22.6508 40.134 22.9846C39.1995 23.7855 38.0648 24.3195 36.8634 24.5197C35.1948 24.72 33.6595 24.453 32.5248 23.0513C32.3246 22.7843 32.0576 22.3838 32.1911 22.1168C32.3246 21.8498 32.7919 21.9166 33.0588 21.9166C35.929 21.6496 38.7991 21.3159 41.6691 21.0489C42.8039 20.9154 43.1377 20.5817 43.3379 19.447C43.5381 18.5125 43.4045 17.6448 43.2711 16.8438ZM36.3962 17.6448C35.395 17.7783 34.327 17.9118 33.3258 18.0453C31.7238 18.112 31.5236 17.845 31.9908 16.2431C32.3913 14.8414 33.4593 14.0405 34.5272 14.1072C35.7287 14.2407 36.8634 15.4421 36.9969 16.7771C37.1304 17.3111 36.9969 17.578 36.3962 17.6448Z" fill="#0B0B0B"/>
</svg>
