<svg width="255" height="79" viewBox="0 0 255 79" fill="none" xmlns="http://www.w3.org/2000/svg">
<path d="M232.493 36.5467C234.651 33.309 236.81 30.4311 238.788 27.3734C239.508 26.1143 240.407 25.5747 242.026 25.5747C245.624 25.5747 249.221 25.3948 252.818 25.215C254.437 25.215 254.977 25.7546 254.977 27.3734C254.977 30.0714 254.977 32.7694 254.977 35.6473C254.977 36.9064 254.617 37.8057 253.717 38.7051C250.839 42.3024 247.961 46.0797 245.084 49.677C244.004 50.9361 244.184 51.6556 245.084 52.7348C247.962 56.1523 250.66 59.7497 253.358 63.1672C254.437 64.6061 254.977 66.0451 254.796 67.6639C254.617 70.182 254.796 72.5203 254.796 75.0385C254.796 76.2975 254.257 77.017 252.998 77.1969C249.401 77.7365 245.624 77.7365 242.026 77.3767C240.587 77.1969 239.688 76.2975 238.968 75.2183C236.81 71.8008 234.651 68.3833 232.313 64.786C230.155 67.8437 227.996 70.5418 226.198 73.5995C224.399 76.6573 222.061 77.9164 218.643 77.5566C216.125 77.3768 213.787 77.7365 211.268 77.017C210.01 76.6573 209.29 76.1177 209.29 74.6787C209.47 71.8008 209.47 69.1028 209.47 66.2249C209.47 65.1457 210.01 64.2464 210.729 63.347C213.607 59.5698 216.665 55.7926 219.542 52.0153C220.262 51.116 220.262 50.5764 219.542 49.677C216.665 46.2595 213.966 42.8421 211.268 39.4246C209.829 37.6259 209.11 35.8272 209.29 33.4889C209.47 31.3305 209.29 29.1721 209.29 27.0137C209.29 25.7546 209.829 25.0351 211.268 25.0351C215.045 25.215 218.823 25.215 222.42 25.3948C223.679 25.3948 224.219 26.1143 224.758 27.0137C227.457 30.2513 229.795 33.309 232.493 36.5467Z" fill="#362E29"/>
<path d="M123.673 56.3321C123.673 52.7347 123.673 49.1374 123.673 45.54C123.673 42.842 123.133 42.1225 120.435 42.3024C118.457 42.3024 117.917 41.5829 118.097 39.7842C118.277 36.5466 118.277 33.309 118.097 30.0713C117.917 28.2727 118.636 27.1934 120.435 27.3733C123.133 27.5532 123.313 25.9344 123.313 23.9558C123.493 19.0994 122.773 14.2429 123.313 9.20662C123.493 6.32873 123.673 6.14886 126.551 6.86833C130.688 7.94754 134.825 8.48715 139.141 9.02675C140.401 9.20662 140.94 9.74622 140.76 11.0053C140.58 14.7825 140.221 18.3799 140.221 22.1571C140.041 25.7545 140.221 25.9344 143.818 25.9344C146.336 25.9344 148.674 25.7545 151.193 25.5746C152.632 25.5746 153.171 26.1142 152.991 27.3733C152.452 31.87 152.452 36.3667 152.632 40.8634C152.632 42.3024 152.092 42.6621 150.833 42.4822C147.955 42.4822 145.257 42.4822 142.379 42.3024C141.12 42.3024 140.401 42.6621 140.401 44.1011C140.401 47.8783 140.401 51.6555 140.58 55.6126C140.76 60.1093 143.278 61.908 147.595 61.1885C149.214 61.0087 150.653 60.4691 152.272 60.2892C153.531 60.1093 154.25 60.4691 154.25 61.7281C154.071 65.3255 153.711 68.743 153.531 72.3404C153.531 73.2397 152.811 73.7793 152.092 74.139C145.617 78.276 138.602 79.3552 131.227 77.3767C126.73 76.1176 124.033 72.7001 123.853 67.8437" fill="#362E29"/>
<path d="M61.2585 22.8766C57.6613 12.0845 50.6463 4.53008 39.1349 2.01192C27.0837 -0.506233 14.8527 0.393107 2.62163 0.752843C1.00293 0.752843 0.643066 1.83205 0.822983 3.271C1.18262 15.1423 1.36256 27.1935 1.54231 39.0648C1.54231 39.0648 1.54231 39.0648 1.36256 39.0648C1.36256 41.4031 1.36256 43.7413 1.36256 46.2595C1.18262 55.7925 1.00293 65.3256 0.643066 74.8586C0.643066 76.1176 0.643066 77.017 2.44177 77.1968C12.5144 77.5566 22.5869 77.7365 32.6597 77.3767C41.653 77.017 49.3872 73.5995 54.9632 66.2249C64.856 52.9146 66.4746 38.3453 61.2585 22.8766ZM42.7322 51.2958C38.4154 59.5698 30.6811 61.7282 21.8675 59.9295C20.4284 59.5698 19.7091 58.6704 19.889 57.2315C19.889 51.1159 19.889 45.0004 19.889 38.8849C19.889 32.9493 19.889 27.0136 19.889 21.2578C19.889 19.2793 20.6083 18.3799 22.4071 18.0202C36.2568 15.3222 43.9913 24.3156 45.2503 35.1077C45.79 40.5037 45.4302 46.0796 42.7322 51.2958Z" fill="#362E29"/>
<path d="M204.074 38.885C200.657 29.7117 194.181 23.776 184.108 22.6968C173.676 21.6176 165.402 25.215 160.366 34.748C155.509 44.1012 154.97 54.1738 159.287 63.8867C163.424 73.2398 170.798 78.2761 181.23 78.2761C191.483 78.2761 198.858 73.4197 203.175 64.0665C205.153 59.7497 205.873 55.0731 205.873 50.2167C205.873 46.4394 205.333 42.6622 204.074 38.885ZM186.627 59.2101C183.569 62.2678 179.072 62.2678 176.014 59.2101C171.518 54.7134 171.518 46.2596 176.014 41.7629C179.252 38.5252 184.108 38.7051 186.986 42.1226C188.965 44.4609 189.864 47.3388 189.864 48.9576C189.864 53.814 188.965 56.6919 186.627 59.2101Z" fill="#362E29"/>
<path d="M115.579 43.0219C113.96 33.8486 109.463 26.6539 100.65 23.2364C89.4979 18.7397 77.2668 24.4955 72.0508 36.1869C69.3526 42.3024 68.8132 48.5978 69.3526 55.0731C70.6118 69.2827 81.044 78.9956 95.2536 78.8157C95.9731 78.8157 96.6926 78.8157 97.4121 78.8157C103.348 78.456 108.924 76.8371 113.241 72.1606C114.14 71.0814 114.5 70.182 113.96 68.9229C112.701 65.8652 111.262 62.8074 109.643 60.1094C108.924 58.8503 108.384 58.6705 107.125 59.5698C104.607 61.7282 101.549 63.1672 98.3114 63.7068C93.815 64.2464 89.6778 63.5269 86.62 59.7496C86.0805 59.0302 85.3609 57.951 85.7207 57.2315C86.0805 56.512 87.3397 56.6919 88.0589 56.6919C95.7935 55.9724 103.528 55.0731 111.262 54.3536C114.32 53.9939 115.219 53.0945 115.759 50.0368C116.298 47.5186 115.938 45.1803 115.579 43.0219ZM97.0524 45.1803C94.3545 45.5401 91.4763 45.8998 88.7785 46.2596C84.4615 46.4394 83.922 45.7199 85.181 41.4031C86.2602 37.6259 89.1382 35.4674 92.0159 35.6473C95.2536 36.0071 98.3114 39.2447 98.6712 42.842C99.0309 44.281 98.6712 45.0005 97.0524 45.1803Z" fill="#362E29"/>
</svg>
